<svg width="14" height="16" viewBox="0 0 14 16" fill="none" xmlns="http://www.w3.org/2000/svg">
<path fill-rule="evenodd" clip-rule="evenodd" d="M9.69975 0.0115783C9.4008 0.0500787 9.05648 0.156743 8.71966 0.315195C8.09325 0.609879 7.57966 1.04441 7.20359 1.59787C6.79807 2.19468 6.5759 2.88447 6.60691 3.45034C6.61204 3.54389 6.62108 3.63261 6.62702 3.64747C6.6509 3.70736 6.99425 3.70463 7.2892 3.64222C7.71092 3.55297 8.24773 3.29147 8.62163 2.99314C8.91394 2.75991 9.27851 2.32951 9.47473 1.98595C9.70606 1.58094 9.86349 1.12841 9.92173 0.701079C9.94608 0.522344 9.95179 0.175553 9.93216 0.0665674C9.9214 0.00688782 9.91673 0.00237344 9.86344 0.000196286C9.832 -0.00108439 9.75834 0.00403832 9.69975 0.0115783ZM9.23267 3.8936C8.89193 3.93874 8.52452 4.03838 8.05268 4.21361C7.87241 4.28056 7.61938 4.37452 7.49041 4.42242C7.16058 4.5449 6.97126 4.5909 6.79076 4.59238C6.52991 4.59454 6.32635 4.53775 5.64109 4.27169C4.74342 3.92312 4.26959 3.84631 3.59496 3.93999C2.90264 4.03612 2.25314 4.3118 1.70207 4.74344C1.52856 4.87935 1.21703 5.1814 1.08232 5.34432C0.518071 6.02676 0.167107 6.88528 0.0364566 7.90271C-0.0212971 8.35255 -0.00930058 9.12262 0.0644157 9.69566C0.264669 11.2523 0.883506 12.8396 1.75579 14.034C2.23993 14.6968 2.49615 15.0066 2.81499 15.3146C3.34497 15.8266 3.80623 16.0295 4.36523 15.9966C4.70962 15.9763 4.94426 15.9136 5.45508 15.7055C6.04563 15.4649 6.31743 15.3919 6.74574 15.3587C7.16337 15.3264 7.62743 15.3836 7.99757 15.5132C8.08197 15.5428 8.28008 15.6209 8.43782 15.6868C8.91961 15.8881 9.10579 15.9396 9.47134 15.9726C10.1835 16.037 10.8058 15.7318 11.4497 15.0025C11.7697 14.64 12.3003 13.91 12.5434 13.4977C12.6902 13.2488 12.8998 12.8469 13.0072 12.609C13.1476 12.2976 13.3547 11.7484 13.3351 11.7392C12.826 11.5009 12.5211 11.2964 12.1748 10.961C11.4928 10.3003 11.142 9.45851 11.142 8.48239C11.1419 7.79648 11.3465 7.134 11.7306 6.57598C12.008 6.17296 12.3972 5.79147 12.792 5.53551C12.8478 5.49936 12.8973 5.46364 12.902 5.45612C12.9068 5.44858 12.8469 5.36386 12.769 5.26783C12.0294 4.35656 10.9397 3.86301 9.68346 3.87023C9.52567 3.87114 9.32281 3.88164 9.23267 3.8936Z" fill="#7B1C93"/>
</svg>
